<svg width="60" height="70" viewBox="0 0 60 70" fill="none" xmlns="http://www.w3.org/2000/svg">
<path d="M54.9445 36.5595C55.327 36.5471 55.6928 36.4932 56.0337 36.3687C56.1667 36.3894 56.3122 36.3977 56.4702 36.3936C56.6448 36.3853 56.807 36.377 56.9483 36.3521C57.0897 36.3355 57.1811 36.3147 57.2227 36.3023C57.4721 36.2401 57.6717 36.1612 57.8255 36.0699C57.9752 35.9745 58.0999 35.8542 58.1872 35.7089C58.2745 35.5596 58.3452 35.3687 58.3992 35.1405C58.4532 34.9123 58.499 34.6343 58.5447 34.2982C58.6279 34.1032 58.6902 33.904 58.7318 33.6924L58.7359 33.6758C58.7443 33.6343 58.7526 33.5969 58.7567 33.5555L58.7775 33.4476L58.7817 33.3687C58.7858 33.3106 58.79 33.2484 58.7942 33.1903C58.8149 32.9248 58.844 32.6343 58.8731 32.319C58.9147 31.8999 58.9563 31.4725 58.9979 31.0327C59.0394 30.5887 59.0685 30.1655 59.0976 29.7547C59.1267 29.3481 59.1434 28.9871 59.1392 28.6717C59.0394 28.6178 58.9688 28.5555 58.9272 28.4808C58.8856 28.4145 58.8648 28.3273 58.8648 28.236C58.8981 27.9622 58.9272 28.0784 58.9396 27.7464C58.9521 27.4103 58.9397 27.0784 58.9189 26.7464C58.8981 26.4145 58.8648 26.1116 58.8025 25.8377C58.8108 25.8045 58.8232 25.7714 58.8482 25.7299C58.8773 25.6925 58.9147 25.6427 58.9563 25.5888C58.9313 25.4643 58.923 25.3274 58.948 25.1656C58.9688 25.0037 58.9521 24.8627 58.8981 24.7299C58.8981 24.7133 58.8981 24.5888 58.9147 24.3564C58.9272 24.1199 58.9396 23.817 58.9521 23.4353C58.9604 23.0619 58.9521 22.6469 58.9396 22.1988C58.9396 21.871 58.9022 21.9249 58.8357 21.5142C58.8108 21.3648 58.7817 21.2113 58.7526 21.0494L58.7443 21.0536C58.5572 20.0578 57.9086 19.2196 57.0273 18.7715C56.4661 18.2943 55.7385 18.0038 54.9445 18.0038H39.3587C39.367 17.6802 39.367 17.3026 39.3587 17.12C39.3379 17.0371 39.313 16.9499 39.2631 16.8628C39.2215 16.7798 39.18 16.6968 39.1467 16.618C39.1134 16.5391 39.0968 16.4562 39.101 16.3856C39.1217 16.257 39.1342 16.1325 39.155 16.0122C39.1716 15.8877 39.155 15.8006 39.0926 15.7383C39.2257 15.452 39.313 15.1657 39.3504 14.8877C39.392 14.6056 39.3753 14.3276 39.3047 14.0496C39.2506 13.7674 39.2174 13.4936 39.2174 13.2321C39.2091 12.9666 39.2298 12.7176 39.2673 12.4853C39.288 12.4313 39.288 12.3649 39.2673 12.3027C39.2465 12.2363 39.2257 12.1699 39.2091 12.1077C39.1841 12.0454 39.1841 11.9874 39.1966 11.9417C39.1051 11.3442 39.0344 10.755 38.9887 10.1617C38.9471 9.5766 38.9056 8.99155 38.8681 8.4148C38.8349 7.83389 38.7767 7.26544 38.706 6.70113C38.6769 6.49781 38.6229 6.27375 38.5522 6.02894C38.4815 5.78414 38.4233 5.56007 38.3651 5.34846C38.3069 5.13684 38.2695 4.97502 38.2695 4.85884C38.2653 4.78415 38.2529 4.71361 38.2404 4.63478C38.2362 4.39827 38.2362 4.16175 38.2362 3.92524C38.2362 3.49786 38.1531 3.09123 37.9993 2.71779C37.9951 2.64725 37.9868 2.58502 37.9702 2.53107C37.9536 2.48128 37.9078 2.38585 37.8455 2.23648C37.7748 2.09125 37.6958 1.92942 37.6043 1.7593C37.517 1.58918 37.4256 1.43566 37.3424 1.30288C37.2593 1.13276 37.1595 0.987534 37.0473 0.867204C36.9309 0.746874 36.7937 0.64729 36.644 0.568453C36.5359 0.506214 36.3987 0.456422 36.2366 0.419078C36.195 0.410779 35.9331 0.348541 35.6171 0.278003C35.218 0.0995826 34.7774 0 34.3159 0H34.0748H34.0665H34.0582H33.9334H33.7547H33.5717H33.5426H23.5776C21.8024 0 20.3515 1.44811 20.3515 3.21986V3.25306C20.3099 3.46882 20.285 3.68873 20.285 3.91279C20.285 6.65964 19.7487 8.49778 21.898 9.61395C22.8126 10.087 25.4567 11.1782 25.4567 11.1782L28.5456 11.9168C31.306 12.5765 30.6076 14.5143 28.4167 14.1906C27.9594 14.1242 24.8622 13.9209 23.7397 14.1035C22.6172 14.2861 18.5015 13.8172 22.7503 19.481C25.1948 22.037 27.0406 23.3896 29.2814 26.124C30.0671 27.0784 29.0403 28.2153 27.5145 27.2858C26.0844 26.4145 21.9645 22.1698 21.5821 21.7673C21.1996 21.3648 20.9003 21.7507 21.1247 22.0909C21.6236 22.8502 24.7665 25.4021 26.1094 27.2195C27.6392 29.2941 25.8724 29.7796 24.2594 28.4269C23.5568 27.8377 19.4286 23.8461 19.2789 23.705C19.1292 23.5639 18.5015 23.5681 18.8258 24.1158C19.308 24.929 22.2763 27.207 23.1826 28.4477C24.3176 29.9912 23.0953 30.7754 21.5405 29.8377C19.1417 28.3937 16.1734 24.7299 15.9032 24.4394C15.475 23.983 15.0592 24.5183 15.3336 24.7548C15.9281 25.3647 17.3 26.9415 17.9693 27.8792C19.0253 29.3647 17.1878 29.7298 16.3397 28.9788C15.5664 28.2941 13.4462 26.2195 12.4443 24.8129C7.49292 17.8296 12.8184 17.925 3.7264 18.2736C2.38359 18.3233 1.22786 18.8254 0.741452 19.9955C0.454598 20.4768 0.292468 21.037 0.292468 21.6303V22.1988H0.284145C0.259201 22.4561 0.234265 22.705 0.213478 22.954C0.167748 23.427 0.126175 23.4477 0.0970739 23.8461C0.0679728 24.2444 0.0430228 24.5929 0.0388655 24.8834C0.0347082 25.1697 0.0388736 25.4685 0.0471882 25.7755C0.0596602 26.0743 0.0762828 26.3689 0.105384 26.651C0.126171 26.9373 0.151111 27.1946 0.180213 27.4269C0.18437 27.4975 0.171908 27.5721 0.13865 27.651C0.101234 27.734 0.0679712 27.8211 0.0305554 27.9041C0.00145426 27.9912 -0.00685934 28.0784 0.00561259 28.1696C0.0097699 28.9082 0.0180835 29.6468 0.0305554 30.3771C0.0388701 31.1115 0.0929171 31.431 0.188535 32.182C0.201007 32.2609 0.209316 32.3356 0.221788 32.4144C0.217631 32.7671 0.217627 33.1156 0.217627 33.4683C0.217627 35.2401 1.66853 36.6882 3.4437 36.6882H20.206C20.2018 37.2234 20.1852 37.9122 20.1519 38.3603C20.1187 38.9578 20.0646 39.5512 20.0148 40.1321C19.9566 40.713 19.9191 41.2524 19.8859 41.7586C19.8568 42.1279 19.8526 42.5138 19.8692 42.937C19.8859 43.3603 19.9025 43.7711 19.9274 44.1901C19.9524 44.6009 19.9607 44.9868 19.9565 45.3436C20.0854 44.9785 20.1686 44.6258 20.2018 44.2939C20.2351 43.9619 20.2517 43.6134 20.2559 43.2565C20.2642 42.8955 20.2891 42.5055 20.339 42.074C20.364 42.0823 20.3889 42.0947 20.4055 42.1072C20.4305 42.1155 20.443 42.1321 20.4513 42.1528C20.3764 42.1238 20.3182 42.074 20.2642 42.0117C20.2185 41.9495 20.1769 41.8831 20.1478 41.8043L20.4305 39.489C20.4055 39.4765 20.3889 39.4724 20.3889 39.4641C20.3806 39.4599 20.3764 39.4475 20.3681 39.4309L20.339 39.3562C20.4346 39.2027 20.4845 39.045 20.4928 38.8707C20.497 38.6964 20.5219 38.5471 20.5718 38.4267C20.6591 38.4641 20.6924 38.489 20.6633 38.5097C20.6425 38.5263 20.6383 38.5595 20.6467 38.6176C20.63 38.5595 20.6383 38.5014 20.6758 38.4433L20.7049 38.3935C20.709 38.6508 20.7132 38.9081 20.7173 39.1695L20.7049 39.1778C20.6882 39.1861 20.6716 39.1944 20.6591 39.1944C20.6425 39.2027 20.63 39.1944 20.6259 39.1736C20.6342 39.1944 20.63 39.2525 20.6176 39.3562C20.6009 39.4558 20.5843 39.572 20.5552 39.7047L20.7215 39.3479C20.7381 40.0782 20.7631 40.8084 20.788 41.5387L20.7963 42.1487L20.5219 49.7668C20.497 49.7585 20.4721 49.7461 20.4513 49.7419C20.4263 49.7295 20.4055 49.7336 20.3889 49.7419L20.3556 49.7585C20.364 49.7792 20.364 49.8083 20.3515 49.8498C20.3473 49.8913 20.3473 49.9203 20.3473 49.9411C20.339 49.9701 20.3349 49.9909 20.3432 50.0116C20.3432 50.0324 20.3515 50.0531 20.3598 50.0697C20.3889 49.9867 20.4305 49.9452 20.4845 49.9245C20.5386 49.912 20.6051 49.9245 20.6799 49.9535C20.655 50.078 20.6467 50.2025 20.6508 50.3311C20.655 50.4556 20.6425 50.5842 20.6217 50.7087L20.4596 50.6091C20.4429 50.551 20.4346 50.4929 20.4305 50.4431C20.4346 50.3892 20.4263 50.3311 20.4014 50.2772C20.4097 50.7004 20.4222 51.1278 20.4263 51.5386C20.4305 51.9493 20.4263 52.3435 20.4139 52.7128C20.3432 52.385 20.2725 52.0904 20.206 51.829C20.1312 51.5635 20.0605 51.3311 19.9732 51.1236C19.9898 51.1153 20.0314 51.1153 20.0896 51.1278C20.1436 51.1444 20.2143 51.1651 20.285 51.1942C20.2559 51.1236 20.2268 51.0697 20.1977 51.0323C20.1686 50.995 20.1395 50.9411 20.1145 50.8705C20.1436 50.7792 20.1686 50.6548 20.1852 50.4888C20.206 50.3187 20.2101 50.1527 20.1977 49.9701C20.1852 49.9535 20.1603 49.9452 20.127 49.9245C20.0854 49.9079 20.0605 49.8581 20.0397 49.7793C20.0522 49.7046 20.0522 49.6133 20.0438 49.5054C20.0314 49.3892 20.0231 49.273 20.0106 49.161C20.0064 49.049 20.0147 48.9535 20.0355 48.8747C19.969 48.9162 19.9316 48.9701 19.9191 49.0531C19.9067 49.1278 19.8983 49.1859 19.89 49.2191C19.89 49.3477 19.8983 49.5012 19.9191 49.6963C19.9441 49.8871 19.9649 50.0738 19.9856 50.2647C20.0064 50.4514 20.0189 50.6091 20.0148 50.7419C19.9607 50.9742 19.9316 51.273 19.9316 51.6257C19.9274 51.9908 19.9441 52.3601 19.9649 52.7419C19.9898 53.1194 20.0064 53.468 20.0231 53.7709C20.0397 53.7626 20.0605 53.7584 20.0813 53.7626C20.102 53.7667 20.1228 53.7626 20.1395 53.7543C20.1644 53.7667 20.1852 53.7667 20.2018 53.7584C20.2226 53.7543 20.2392 53.746 20.2559 53.7377C20.2517 53.6257 20.2434 53.5261 20.2268 53.4348C20.2101 53.3435 20.181 53.2522 20.1436 53.1609C20.1769 53.0614 20.206 52.9867 20.2351 52.941C20.26 52.8912 20.2974 52.829 20.339 52.746C20.364 52.7585 20.3889 52.7668 20.4097 52.7709C20.4346 52.7833 20.4554 52.7792 20.472 52.7709L20.5053 52.7543C20.5095 52.3809 20.5053 52.0323 20.4887 51.6921C20.472 51.3601 20.5011 51.0697 20.576 50.8207C20.6009 50.829 20.6176 50.8373 20.6176 50.8456C20.6259 50.8498 20.63 50.8622 20.6383 50.8788L20.6674 50.9535L20.7755 55.3352C20.7797 55.4016 20.7755 55.4555 20.7589 55.5094C20.7464 55.5592 20.7257 55.609 20.7007 55.6464C20.6841 55.6547 20.6716 55.6588 20.6716 55.6547C20.6674 55.6588 20.6591 55.6464 20.655 55.6256L20.6383 55.5883C20.6508 55.2356 20.6342 54.8912 20.5885 54.551C20.5386 54.2066 20.497 53.8746 20.4596 53.551C20.4305 53.663 20.4305 53.7792 20.4513 53.8871C20.4762 54.0032 20.472 54.1028 20.4346 54.1983C20.3473 54.1651 20.2974 54.1236 20.2725 54.0613C20.2559 54.0032 20.2309 53.9618 20.2143 53.9493C20.1561 53.9078 20.102 53.8912 20.0438 53.8912C19.9898 53.8954 19.9358 53.9078 19.8859 53.9327C20.0106 54.1277 20.0813 54.3642 20.0854 54.6298C20.102 54.8995 20.0979 55.1734 20.0813 55.4597C20.0646 55.7377 20.073 55.9908 20.1145 56.2107C20.1228 56.2812 20.1603 56.3684 20.206 56.4679C20.2559 56.5717 20.285 56.6298 20.2974 56.663C20.2517 56.8995 20.2101 57.1194 20.1935 57.3268C20.1686 57.5343 20.1727 57.692 20.1894 57.804C20.2018 58.8621 20.2392 59.9285 20.285 60.999C20.3265 61.9284 20.4097 62.8371 20.5344 63.7209C20.5552 63.8537 20.5718 63.9865 20.5926 64.1193C20.5926 64.2396 20.6217 64.3599 20.6841 64.4802C20.7464 64.6006 20.8088 64.7209 20.8712 64.8412C20.9377 64.9574 20.9751 65.0777 20.9876 65.1898L20.8753 65.5176C20.8878 65.4512 20.8919 65.418 20.8836 65.4055C20.8753 65.4014 20.8795 65.4014 20.8878 65.4014C20.8961 65.4055 20.9252 65.3972 20.9792 65.3723C21.0624 65.3309 21.1206 65.3226 21.1539 65.3516C21.1788 65.3848 21.2037 65.4263 21.2204 65.4844C21.2412 65.5425 21.2786 65.5964 21.3326 65.6462C21.3035 65.7292 21.2661 65.7997 21.2328 65.862C21.1913 65.9284 21.1705 65.974 21.158 66.0072C21.1663 66.0777 21.1663 66.1773 21.1622 66.3018C21.1538 66.4263 21.1289 66.5383 21.0873 66.6337C21.2453 66.6669 21.3326 66.7209 21.3492 66.7831C21.3659 66.8412 21.3742 66.9076 21.3576 66.974C21.3451 67.0404 21.3659 67.1151 21.4282 67.1856L21.8523 67.335C21.8564 67.5424 21.898 67.7499 21.9812 67.9408C22.0643 68.1399 22.1766 68.2935 22.3262 68.4096C22.4135 68.4802 22.5008 68.5424 22.5881 68.6005C22.9955 69.2561 23.6524 69.671 24.6003 69.671H25.1781H32.179H32.2539H32.283H32.4285H32.4534H32.5989H32.6239H32.7735H32.7985H32.9481H32.9731H33.1228H33.1518H33.3015H33.3306H33.4803H33.5094H33.659H33.6923H33.8378H33.8711H34.0166H34.054H34.1995H34.2411H34.3824H34.4281H34.5653H34.6152H34.7524H34.8065H34.9395H34.9977H35.1266H35.2264H35.6961C37.1429 69.671 38.3734 68.7084 38.7808 67.3931C38.8349 67.2893 38.8848 67.1897 38.9347 67.0943C39.0095 66.9615 39.0594 66.8578 39.0885 66.7831C39.1384 66.6379 39.1966 66.4097 39.2548 66.1068C39.3213 65.7997 39.392 65.4097 39.4751 64.9367C39.5624 64.4637 39.6206 64.0321 39.658 63.6504C39.6996 63.2603 39.7162 62.916 39.7121 62.6089C39.7162 62.1857 39.7162 61.7956 39.7038 61.443C39.6913 61.082 39.6788 60.7957 39.6664 60.5757C39.6539 60.3558 39.6497 60.2397 39.6497 60.2231C39.683 60.0944 39.6913 59.9617 39.6747 59.8123C39.658 59.6629 39.6622 59.5301 39.6747 59.4139C39.6456 59.36 39.6206 59.3144 39.5998 59.2812C39.5832 59.2397 39.5707 59.2106 39.5666 59.1774C39.604 58.9202 39.6248 58.6339 39.6331 58.3185C39.6414 58.0032 39.6456 57.6878 39.6331 57.3725C39.6206 57.0571 39.5998 56.7708 39.5707 56.5136C39.5707 56.4264 39.5832 56.3476 39.6082 56.2812C39.6331 56.2107 39.6788 56.1526 39.7453 56.0986C39.7412 55.7999 39.7287 55.4596 39.7038 55.0779C39.7578 47.3395 38.3693 44.8291 32.6821 43.298L29.6057 42.3893C29.6057 42.3893 28.2338 41.9661 28.055 41.269C27.8762 40.5719 29.2481 40.3645 29.589 40.3728C29.9299 40.3811 32.9606 41.381 33.7048 40.9661C36.5567 39.3811 30.9402 33.4766 28.7908 31.0534C27.8596 29.6717 28.9738 28.8626 30.3872 29.958L34.1621 34.2359C34.2244 34.4434 34.6942 34.543 34.478 34.0243C34.2577 33.5057 31.3892 29.987 31.3892 29.987C30.3083 28.568 31.6427 27.8916 32.8858 28.9871L36.9392 33.7048C37.1221 33.9455 37.4464 33.8003 37.2135 33.4517C36.9807 33.1032 34.3408 29.7879 34.3408 29.7879C34.1039 29.402 33.3431 28.4269 33.9667 27.9746C35.3677 27.1448 39.1301 32.904 39.5292 33.2858C39.8659 33.5886 40.0571 33.3604 39.8909 33.1156L36.698 28.8543C35.9788 28.1157 36.6772 27.1987 37.8704 28.2651C39.7162 29.9124 41.3833 32.2567 42.776 34.2401C45.0418 37.4351 46.8834 36.8127 54.9445 36.5595ZM20.9294 65.6006L20.921 65.7831L21.1539 65.7582L21.1622 65.5757L20.9294 65.6006ZM20.0064 45.6507L19.9607 45.9453L20.127 45.9536L20.1561 45.6216L20.0064 45.6507ZM20.4222 45.5802C20.4014 45.7793 20.3681 45.9536 20.3307 46.1071C20.2933 46.2606 20.2351 46.3685 20.1602 46.4349C20.0771 46.3644 20.0106 46.2772 19.9649 46.1693C19.9233 46.0615 19.8817 45.9619 19.8484 45.8664C19.8568 45.8872 19.8609 45.9121 19.8568 45.9536C19.8568 45.9909 19.8526 46.0241 19.8401 46.0532C19.8318 46.0822 19.8193 46.103 19.811 46.1154C19.7986 46.132 19.7944 46.1444 19.8027 46.1652C19.8526 46.1403 19.8983 46.132 19.9399 46.1362C19.9773 46.1486 20.0106 46.1776 20.0314 46.2316L19.9399 46.5054C19.9108 46.5884 19.9025 46.6839 19.9025 46.7793C19.9025 46.883 19.915 46.9909 19.9358 47.0946C19.9773 46.9992 20.0231 46.9079 20.0646 46.8332C20.1145 46.7544 20.1727 46.7337 20.2434 46.7586C20.2392 46.8332 20.2517 46.9121 20.285 46.9785C20.3141 47.0366 20.3432 47.1071 20.3764 47.1735C20.4097 47.2399 20.4263 47.3146 20.418 47.3934L20.4222 45.5802ZM20.127 47.2648L19.9649 47.1652C20.0397 47.3519 20.0813 47.5594 20.0937 47.7793C20.1062 47.659 20.1228 47.5635 20.127 47.4764C20.1353 47.3975 20.1353 47.327 20.127 47.2648ZM20.2226 52.9203L20.1021 52.6174L19.9316 52.7004L20.0522 53.0033L20.2226 52.9203ZM20.4762 54.6505L20.3266 54.6796V54.2729L20.4596 54.2066L20.4762 54.6505ZM20.5053 55.7211L20.3598 55.6588L20.3681 55.3808L20.5344 55.3891L20.5053 55.7211ZM20.9668 57.165L20.8337 57.2314L20.7298 56.4679L20.8628 56.4015L20.9668 57.165Z" fill="#23568A"/>
</svg>
